<svg aria-hidden="true" style="position: absolute; width: 0; height: 0; overflow: hidden;" version="1.1" xmlns="http://www.w3.org/2000/svg" xmlns:xlink="http://www.w3.org/1999/xlink">
<defs>
<symbol id="icon-search" viewBox="0 0 32 32">
<path d="M31.008 27.231l-7.58-6.447c-0.784-0.705-1.622-1.029-2.299-0.998 1.789-2.096 2.87-4.815 2.87-7.787 0-6.627-5.373-12-12-12s-12 5.373-12 12 5.373 12 12 12c2.972 0 5.691-1.081 7.787-2.87-0.031 0.677 0.293 1.515 0.998 2.299l6.447 7.58c1.104 1.226 2.907 1.33 4.007 0.23s0.997-2.903-0.23-4.007zM12 20c-4.418 0-8-3.582-8-8s3.582-8 8-8 8 3.582 8 8-3.582 8-8 8z"></path>
</symbol>
<symbol id="icon-arrow-up2" viewBox="0 0 32 32">
<path d="M27.414 12.586l-10-10c-0.781-0.781-2.047-0.781-2.828 0l-10 10c-0.781 0.781-0.781 2.047 0 2.828s2.047 0.781 2.828 0l6.586-6.586v19.172c0 1.105 0.895 2 2 2s2-0.895 2-2v-19.172l6.586 6.586c0.39 0.39 0.902 0.586 1.414 0.586s1.024-0.195 1.414-0.586c0.781-0.781 0.781-2.047 0-2.828z"></path>
</symbol>
<symbol id="icon-logo-taster" viewBox="0 0 144 32">
<path d="M139.85 0c-4.503-0.028-10.976 2.754-14.954 2.843-5.92 0.132-7.543-3.016-10.025-1.406-2.424 1.86 0.909 6.6 1.489 7.263 0.234 0.301 0.485 0.588 0.753 0.859l-0.013 0.012c-1.046 0.967-1.98 2.050-2.784 3.226-0.564 0.788-1.068 1.619-1.508 2.483-0.776 1.553-1.349 3.2-1.704 4.901-0.368 1.796-0.492 3.631-0.179 5.444 0.28 1.619 1.030 3.221 2.276 4.319 1.396 1.228 3.241 1.843 5.090 1.906 1.697 0.057 3.368-0.431 4.769-1.393 1.657-1.147 2.86-2.805 3.646-4.646 0.492-1.151 0.864-2.35 1.108-3.579 0.28-1.388 0.574-2.773 0.961-4.134 0.154-0.553 0.336-1.099 0.549-1.632 0.211-0.485 0.472-0.945 0.78-1.375 0.074-0.092 0.153-0.183 0.237-0.27 0.959-0.019 1.917-0.102 2.866-0.249 1.292-0.211 2.555-0.572 3.764-1.076 0.665-0.261 1.308-0.578 1.92-0.948 2.53-1.474 7.007-5.473 5.63-9.854-0.74-1.996-2.469-2.68-4.669-2.694zM42.805 1.428c-4.525 0-7.568 2.388-7.541 5.766 0 7.442 10.393 4.476 10.393 7.909 0 1.016-1.014 1.541-2.852 1.541-1.92 0-2.824-0.659-2.851-1.95h-4.99c0 3.872 2.77 6.014 7.651 6.014 4.744 0 7.98-2.114 7.98-5.601 0-7.799-10.392-4.779-10.392-8.019 0-1.016 0.849-1.592 2.55-1.592 1.727 0 2.522 0.631 2.522 1.977h5.019c0-3.762-2.824-6.044-7.486-6.044h-0.001zM0 1.678v4.119h5.004v14.719h4.991v-14.72h5.030v-4.117h-15.026zM51.88 1.678v4.119h5.005v14.719h4.99v-14.72h5.033v-4.117h-15.028zM70.096 1.678v18.837h13.82v-4.065h-8.83v-3.432h7.486v-3.925h-7.486v-3.351h8.694v-4.064h-13.684zM21.156 1.679l-6.531 18.836h4.99l1.042-3.487h6.884l1.042 3.487h5.019l-6.526-18.836h-5.918zM87.046 1.684v18.831h4.991v-6.317h2.441l1.728 3.401c0.932 1.841 2.056 3.048 5.046 3.048 0.703 0.010 1.404-0.076 2.083-0.255v-3.75c-0.348 0.098-0.708 0.144-1.069 0.136-0.71 0-1.184-0.301-1.562-1.043l-1.263-2.522c1.894-1.043 3.077-2.828 3.077-5.272 0-3.982-2.632-6.26-7.457-6.26l-8.015 0.001zM24.114 5.606l2.302 7.688h-4.634l2.332-7.688zM92.037 5.688h3.017c1.59 0 2.412 0.934 2.412 2.362 0 1.454-0.822 2.334-2.412 2.334h-3.017v-4.696zM125.802 7.559c-0.103 0.045-0.206 0.089-0.308 0.136-1.14 0.54-2.21 1.216-3.186 2.015-0.83 0.65-1.581 1.396-2.235 2.223-1 1.305-1.888 2.693-2.654 4.148l-0.044 0.082c-0.258 0.493-0.142 1.179 0.381 1.455 0.49 0.26 1.184 0.145 1.453-0.382 0.512-0.971 1.073-1.915 1.683-2.828 0.244-0.366 0.498-0.724 0.763-1.076 0.656-0.809 1.402-1.539 2.225-2.176 0.904-0.691 1.888-1.272 2.928-1.73 1.020-0.418 2.088-0.711 3.179-0.871 0.688-0.086 1.384-0.093 2.074-0.020 0.455 0.076 0.901 0.2 1.33 0.37 0.34 0.148 0.664 0.332 0.966 0.548 0.118 0.101 0.23 0.21 0.331 0.327 0.040 0.062 0.077 0.119 0.111 0.188 0.018 0.052 0.033 0.105 0.045 0.159 0 0.051 0 0.101-0.002 0.152-0.016 0.070-0.036 0.14-0.059 0.209-0.021 0.069-0.065 0.119-0.102 0.178-0.068 0.077-0.142 0.148-0.219 0.216-0.143 0.096-0.294 0.181-0.451 0.252-0.903 0.344-1.884 0.439-2.802 0.743-0.574 0.173-1.118 0.435-1.612 0.775-0.573 0.42-1.065 0.937-1.457 1.53-0.683 1.003-1.092 2.185-1.42 3.346-0.355 1.26-0.638 2.54-0.898 3.822-0.222 1.19-0.557 2.356-1 3.482-0.352 0.819-0.796 1.594-1.326 2.31-0.391 0.491-0.834 0.938-1.321 1.333-0.421 0.313-0.875 0.58-1.354 0.795-0.476 0.188-0.971 0.324-1.477 0.403-0.554 0.064-1.112 0.064-1.665 0-0.571-0.086-1.131-0.235-1.67-0.444-0.402-0.177-0.784-0.397-1.139-0.655-0.292-0.24-0.56-0.508-0.8-0.801-0.262-0.36-0.485-0.747-0.664-1.154-0.218-0.566-0.373-1.154-0.462-1.754-0.114-1.029-0.103-2.068 0.033-3.095 0.226-1.552 0.646-3.068 1.251-4.514 0.445-1.022 0.983-2.001 1.606-2.925 0.274-0.411 0.564-0.813 0.864-1.207 0.84-1.067 1.808-2.029 2.876-2.866 1.051-0.801 2.182-1.547 3.394-2.076 0.673-0.275 1.375-0.472 2.092-0.585 0.245-0.027 0.491-0.039 0.738-0.037z"></path>
</symbol>
</defs>
</svg>
